<svg id="_036-hospital" data-name="036-hospital" xmlns="http://www.w3.org/2000/svg" width="78" height="78" viewBox="0 0 78 78">
  <path id="Path_14" data-name="Path 14" d="M72.287,24.168H67.111a1.143,1.143,0,1,0,0,2.285h5.176a3.432,3.432,0,0,1,3.428,3.428V75.639a.076.076,0,0,1-.076.076H62.921v-4.57h5.837a2.366,2.366,0,0,0,2.361-2.351l.026-5.626A2.378,2.378,0,0,0,68.783,60.8H62.921v-4.5h5.837a2.366,2.366,0,0,0,2.361-2.351l.026-5.626a2.378,2.378,0,0,0-2.361-2.372H62.921v-4.57h5.837a2.366,2.366,0,0,0,2.361-2.351l.026-5.626a2.378,2.378,0,0,0-2.361-2.372H62.921V19.2a5.719,5.719,0,0,0-5.713-5.713H53.58a14.625,14.625,0,0,0-29.161,0h-3.7A5.719,5.719,0,0,0,15.006,19.2v4.973H5.713A5.719,5.719,0,0,0,0,29.881V75.639A2.364,2.364,0,0,0,2.361,78H75.639A2.364,2.364,0,0,0,78,75.639V29.881a5.719,5.719,0,0,0-5.713-5.713Zm-9.366,9.141h5.862a.076.076,0,0,1,.076.076l-.025,5.626a.076.076,0,0,1-.076.076H62.921Zm0,14.919h5.862a.072.072,0,0,1,.054.022.073.073,0,0,1,.022.054l-.025,5.626a.076.076,0,0,1-.076.076H62.921Zm0,14.853h5.862a.072.072,0,0,1,.054.022.073.073,0,0,1,.022.054l-.025,5.626a.076.076,0,0,1-.076.076H62.921ZM15.006,68.859H9.243a.075.075,0,0,1-.076-.075l-.026-5.626a.073.073,0,0,1,.022-.055.072.072,0,0,1,.054-.022h5.789Zm0-14.854H9.243a.075.075,0,0,1-.076-.075L9.141,48.3a.073.073,0,0,1,.023-.055.072.072,0,0,1,.054-.023h5.789Zm0-14.919H9.243a.075.075,0,0,1-.076-.075l-.026-5.626a.073.073,0,0,1,.023-.055.072.072,0,0,1,.054-.023h5.789Zm0-8.064H9.217A2.376,2.376,0,0,0,6.855,33.4l.026,5.626a2.366,2.366,0,0,0,2.361,2.35h5.763v4.57H9.217a2.376,2.376,0,0,0-2.361,2.373l.026,5.626a2.366,2.366,0,0,0,2.361,2.35h5.763v4.5H9.217a2.375,2.375,0,0,0-2.361,2.373l.026,5.626a2.366,2.366,0,0,0,2.361,2.35h5.763v4.57H2.361a.076.076,0,0,1-.076-.076V29.881a3.432,3.432,0,0,1,3.428-3.428h9.293ZM39,2.285a12.34,12.34,0,1,1-12.34,12.34A12.354,12.354,0,0,1,39,2.285Zm10.211,73.43H40.143V55.594h9.068ZM26.5,53.309V51.024H51.5v2.285ZM60.636,75.715H51.5V55.594a2.1,2.1,0,0,0,2.285-2.057V50.8a2.059,2.059,0,0,0-2.057-2.057H26.276A2.059,2.059,0,0,0,24.219,50.8v2.742A2.086,2.086,0,0,0,26.5,55.594v8.091a1.143,1.143,0,0,0,2.285,0V55.594h9.068V75.715H28.789v-6.7a1.143,1.143,0,0,0-2.285,0v6.7H17.291V19.2a3.432,3.432,0,0,1,3.428-3.428h3.7a14.625,14.625,0,0,0,29.161,0h3.628A3.432,3.432,0,0,1,60.636,19.2ZM35.572,18.053v4.57a2.059,2.059,0,0,0,2.057,2.057h2.742a2.059,2.059,0,0,0,2.057-2.057v-4.57H47A2.059,2.059,0,0,0,49.055,16V13.254A2.059,2.059,0,0,0,47,11.2h-4.57V6.627A2.059,2.059,0,0,0,40.371,4.57H37.629a2.059,2.059,0,0,0-2.057,2.057V11.2H31a2.059,2.059,0,0,0-2.057,2.057V16A2.059,2.059,0,0,0,31,18.053Zm-4.342-4.57h5.027a1.6,1.6,0,0,0,1.6-1.6V6.855h2.285v5.027a1.6,1.6,0,0,0,1.6,1.6H46.77v2.285H41.742a1.6,1.6,0,0,0-1.6,1.6v5.027H37.857V17.367a1.6,1.6,0,0,0-1.6-1.6H31.23Zm3.2,54.484a1.143,1.143,0,0,0,1.143-1.143V64.485a1.143,1.143,0,0,0-2.285,0v2.339A1.143,1.143,0,0,0,34.43,67.966ZM34.353,33.82h-10.1a2.366,2.366,0,0,0-2.361,2.351L21.867,41.8a2.379,2.379,0,0,0,2.361,2.372H34.353a2.364,2.364,0,0,0,2.361-2.361V36.182a2.364,2.364,0,0,0-2.361-2.361Zm.076,7.987a.076.076,0,0,1-.076.076H24.228a.089.089,0,0,1-.076-.076l.025-5.626a.076.076,0,0,1,.076-.076h10.1a.076.076,0,0,1,.076.076ZM43.57,67.966a1.143,1.143,0,0,0,1.143-1.143V64.485a1.143,1.143,0,0,0-2.285,0v2.339A1.143,1.143,0,0,0,43.57,67.966ZM53.735,33.82H43.646a2.364,2.364,0,0,0-2.361,2.361v5.626a2.364,2.364,0,0,0,2.361,2.361H53.71a2.366,2.366,0,0,0,2.361-2.351l.025-5.626A2.378,2.378,0,0,0,53.735,33.82Zm.051,7.988a.076.076,0,0,1-.076.076H43.646a.076.076,0,0,1-.076-.076V36.182a.076.076,0,0,1,.076-.076H53.735a.076.076,0,0,1,.076.076Z" fill="#040099"/>
</svg>
