<svg xmlns="http://www.w3.org/2000/svg" width="74.3" height="88" viewBox="0 0 74.3 88">
  <g id="_049-medical_insurance" data-name="049-medical insurance" transform="translate(-39.854)">
    <path id="Path_15" data-name="Path 15" d="M66.287,34.977v5.156H61.131a2.323,2.323,0,0,0-2.32,2.32v3.094a2.323,2.323,0,0,0,2.32,2.32h5.156v5.156a2.323,2.323,0,0,0,2.32,2.32H71.7a2.323,2.323,0,0,0,2.32-2.32V47.867h5.156a2.323,2.323,0,0,0,2.32-2.32V42.453a2.323,2.323,0,0,0-2.32-2.32H74.021V34.977a2.323,2.323,0,0,0-2.32-2.32H68.607A2.323,2.323,0,0,0,66.287,34.977Zm2.578.258h2.578v5.672a1.807,1.807,0,0,0,1.8,1.8H78.92v2.578H73.248a1.807,1.807,0,0,0-1.8,1.8v5.672H68.865V47.094a1.807,1.807,0,0,0-1.8-1.8H61.388V42.711H67.06a1.807,1.807,0,0,0,1.8-1.8ZM97.654,0A16.519,16.519,0,0,0,82.825,9.269c-.753-.364-1.5-.754-2.216-1.173A33.377,33.377,0,0,1,71.927.821a2.326,2.326,0,0,0-3.546,0A33.381,33.381,0,0,1,59.7,8.1,34.182,34.182,0,0,1,42.2,12.64a2.326,2.326,0,0,0-2.347,2.327V37.1a1.289,1.289,0,0,0,2.578,0V15.219a36.782,36.782,0,0,0,18.562-4.894,35.939,35.939,0,0,0,9.16-7.612,35.932,35.932,0,0,0,9.16,7.612c.832.483,1.69.934,2.561,1.349a16.433,16.433,0,0,0-.715,4.4,39.563,39.563,0,0,1-4.006-2.032,40.018,40.018,0,0,1-5.621-3.948,2.135,2.135,0,0,0-2.756,0,40.053,40.053,0,0,1-5.623,3.95,40.348,40.348,0,0,1-14.586,5.042,2.161,2.161,0,0,0-1.838,2.126V52.436a28.915,28.915,0,0,0,13.312,24.4,32.062,32.062,0,0,0,9.577,4.013,2.172,2.172,0,0,0,1.072,0,32.06,32.06,0,0,0,9.578-4.014,28.914,28.914,0,0,0,13.311-24.4V32.49a16.477,16.477,0,0,0,4.075.51c.074,0,.148,0,.222,0V52.436A33.328,33.328,0,0,1,82.594,80.447a37.6,37.6,0,0,1-12.44,4.945,37.6,37.6,0,0,1-12.44-4.944A33.328,33.328,0,0,1,42.432,52.436V43.111a1.289,1.289,0,1,0-2.578,0v9.324A35.905,35.905,0,0,0,56.318,82.614a40.336,40.336,0,0,0,13.564,5.356,1.291,1.291,0,0,0,.544,0A40.334,40.334,0,0,0,83.99,82.614a35.905,35.905,0,0,0,16.463-30.178V32.758a16.537,16.537,0,0,0,10.783-6.9,1.289,1.289,0,0,0-2.121-1.466,13.839,13.839,0,1,1,2.176-5.085,1.289,1.289,0,1,0,2.525.519A16.507,16.507,0,0,0,97.654,0ZM91,31.6V52.436A26.346,26.346,0,0,1,78.871,74.667a29.442,29.442,0,0,1-8.717,3.657,29.445,29.445,0,0,1-8.717-3.656,26.346,26.346,0,0,1-12.13-22.231V21.578a42.867,42.867,0,0,0,15.142-5.309A42.637,42.637,0,0,0,70.154,12.3a42.655,42.655,0,0,0,5.7,3.97,42.306,42.306,0,0,0,5.477,2.675A16.548,16.548,0,0,0,91,31.6ZM53.654,44a16.5,16.5,0,1,0,16.5-16.5A16.519,16.519,0,0,0,53.654,44Zm30.422,0A13.922,13.922,0,1,1,70.154,30.078,13.938,13.938,0,0,1,84.076,44ZM106.315,9.487a3.9,3.9,0,0,0-5.386.18l-5.872,5.872-.729-.729a3.867,3.867,0,1,0-5.469,5.469l2.856,2.856a4.731,4.731,0,0,0,6.684,0l8.05-8.051a3.91,3.91,0,0,0-.134-5.6Zm-1.689,3.774-8.05,8.051a2.153,2.153,0,0,1-3.038,0l-2.856-2.856A1.289,1.289,0,0,1,92.5,16.633l1.275,1.276a1.8,1.8,0,0,0,2.552,0l6.419-6.419a1.342,1.342,0,0,1,1.828-.1A1.3,1.3,0,0,1,104.626,13.261Z" fill="#040099"/>
  </g>
</svg>
