<svg xmlns="http://www.w3.org/2000/svg" width="61.916" height="74.326" viewBox="0 0 61.916 74.326">
  <g id="Group_20" data-name="Group 20" transform="translate(-797.042 -236.922)">
    <g id="_024-doctor" data-name="024-doctor" transform="translate(756.957 236.922)">
      <g id="Group_9" data-name="Group 9" transform="translate(40.085 0)">
        <path id="Path_9" data-name="Path 9" d="M78.1,30.569a16.1,16.1,0,1,0-14.124,0A31.005,31.005,0,0,0,40.085,60.7V73.088a1.238,1.238,0,0,0,1.238,1.238h59.44A1.238,1.238,0,0,0,102,73.088V60.7A31.005,31.005,0,0,0,78.1,30.569ZM57.422,16.125A13.622,13.622,0,1,1,71.043,29.746,13.622,13.622,0,0,1,57.422,16.125Zm42.1,55.725H42.562V60.7A28.51,28.51,0,0,1,58.513,35.136a17.251,17.251,0,0,0-4.754,10.921,3.715,3.715,0,1,0,2.477.032,14.843,14.843,0,0,1,29.613-.1,6.2,6.2,0,0,0-4.9,6.05V56.99h2.477V52.036a3.715,3.715,0,1,1,7.43,0V56.99h2.477V52.036a6.2,6.2,0,0,0-5.01-6.068,17.254,17.254,0,0,0-4.749-10.828A28.51,28.51,0,0,1,99.525,60.7ZM56.183,49.56a1.238,1.238,0,1,1-1.238-1.238A1.238,1.238,0,0,1,56.183,49.56Z" transform="translate(-40.085 0)" fill="#040099"/>
      </g>
    </g>
    <circle id="Ellipse_3" data-name="Ellipse 3" cx="6" cy="6" r="6" transform="translate(837 239)" fill="#03a122"/>
    <path id="Path_10" data-name="Path 10" d="M865.522,1121.53l2.411,2.411,4.337-4.339" transform="translate(-26 -877)" fill="none" stroke="#fff" stroke-width="1"/>
  </g>
</svg>
