<svg xmlns="http://www.w3.org/2000/svg" viewBox="0 0 165.74 52.42"><defs><style>.cls-1{fill:#040099;}.cls-2{fill:#ed0618;}</style></defs><title>PCIS-Logo</title><g id="Layer_2" data-name="Layer 2"><g id="Layer_1-2" data-name="Layer 1"><rect class="cls-1" x="101.3" y="1.86" width="14.04" height="3.37"/><polygon class="cls-2" points="129.14 20.04 129.14 34.09 115.34 34.09 115.34 51.25 101.3 51.25 101.3 34.09 87.51 34.09 87.51 20.04 101.3 20.04 101.3 6.25 115.34 6.25 115.34 20.04 129.14 20.04"/><path class="cls-1" d="M0,0H21.6c12.75,0,21,6.55,21,17.71v.15C42.56,29.74,33.41,36,20.88,36H14V50.4H0ZM20.59,25.06c5,0,8-2.59,8-6.55v-.15c0-4.32-3-6.62-8.07-6.62H14V25.06Z"/><path class="cls-1" d="M46.73,26.35v-.14C46.73,11.52,58,0,73.3,0,83.59,0,90.22,4.32,94.68,10.51L84.17,18.65c-2.88-3.6-6.19-5.9-11-5.9-7.05,0-12,6-12,13.32v.14c0,7.56,5,13.47,12,13.47,5.26,0,8.36-2.45,11.38-6.12L95,41C90.29,47.6,83.88,52.42,72.72,52.42A25.6,25.6,0,0,1,46.73,26.35Z"/><path class="cls-1" d="M165.74,35.57v.15c0,10.29-8.14,16.41-20.38,16.41-8.93,0-17.42-2.8-23.62-8.35l7.78-9.29a26,26,0,0,0,16.35,6c3.74,0,5.76-1.3,5.76-3.46v-.14c0-2.09-1.66-3.24-8.5-4.82-5.08-1.17-9.63-2.45-13-4.6V19h-5.8a17.19,17.19,0,0,1-.22-2.77v-.14C124.12,6.77,131.54,0,143.63,0c8.57,0,15.27,2.31,20.74,6.7l-7,9.86a25.29,25.29,0,0,0-14.12-5c-3.38,0-5,1.44-5,3.24V15c0,2.3,1.73,3.31,8.72,4.9C158.54,22.4,165.74,26.14,165.74,35.57Z"/></g></g></svg>